<?xml version="1.0" encoding="UTF-8" standalone="no"?><!DOCTYPE svg PUBLIC "-//W3C//DTD SVG 1.1//EN" "http://www.w3.org/Graphics/SVG/1.1/DTD/svg11.dtd"><svg width="100%" height="100%" viewBox="0 0 524 159" version="1.1" xmlns="http://www.w3.org/2000/svg" xmlns:xlink="http://www.w3.org/1999/xlink" xml:space="preserve" xmlns:serif="http://www.serif.com/" style="fill-rule:evenodd;clip-rule:evenodd;stroke-linejoin:round;stroke-miterlimit:2;"><g id="ICON"><g><path d="M79.023,54.769c-13.314,0 -24.146,10.832 -24.146,24.146c0,13.314 10.832,24.145 24.146,24.145c13.314,0 24.146,-10.831 24.146,-24.145c0,-13.314 -10.832,-24.146 -24.146,-24.146Zm0,43.928c-10.908,0 -19.782,-8.875 -19.782,-19.782c0,-10.908 8.874,-19.783 19.782,-19.783c10.908,0 19.782,8.875 19.782,19.783c0,10.907 -8.874,19.782 -19.782,19.782Z" style="fill:#ff39e5;fill-rule:nonzero;"/><path d="M79.023,70.122c4.846,0 8.78,3.94 8.78,8.792c0,4.853 -3.934,8.793 -8.78,8.793c-4.846,0 -8.78,-3.94 -8.78,-8.793c0,-4.852 3.934,-8.792 8.78,-8.792Zm0,4.396c2.423,0 4.39,1.97 4.39,4.396c0,2.427 -1.967,4.397 -4.39,4.397c-2.423,0 -4.39,-1.97 -4.39,-4.397c0,-2.426 1.967,-4.396 4.39,-4.396Z" style="fill:#ff39e5;"/><g><path d="M81.657,139.37c-33.734,0 -61.179,-27.444 -61.179,-61.179c0,-1.407 -1.141,-2.549 -2.549,-2.549c-1.408,0 -2.549,1.142 -2.549,2.549c0,17.717 6.89,34.365 19.401,46.876c12.511,12.511 29.159,19.402 46.876,19.402c1.408,0 2.549,-1.142 2.549,-2.549c0,-1.408 -1.141,-2.55 -2.549,-2.55Z" style="fill:#ff39e5;fill-rule:nonzero;"/><path d="M58.232,123.811c0.357,0.172 0.735,0.255 1.108,0.255c0.947,0 1.856,-0.531 2.296,-1.441c0.613,-1.267 0.083,-2.791 -1.185,-3.404c-16.874,-8.159 -27.356,-24.876 -27.356,-43.629c0,-1.408 -1.141,-2.549 -2.55,-2.549c-1.408,0 -2.549,1.141 -2.549,2.549c0,10.263 2.907,20.232 8.406,28.829c5.353,8.368 12.902,15.073 21.83,19.39Z" style="fill:#ff39e5;fill-rule:nonzero;"/><path d="M81.528,124.026c-4.058,0 -8.089,-0.502 -11.981,-1.49c-1.364,-0.347 -2.752,0.479 -3.098,1.844c-0.346,1.364 0.479,2.751 1.844,3.098c4.301,1.092 8.754,1.646 13.235,1.646c1.408,0 2.549,-1.142 2.549,-2.55c0,-1.407 -1.141,-2.548 -2.549,-2.548Z" style="fill:#ff39e5;fill-rule:nonzero;"/><path d="M81.528,111.28c-10.189,0 -19.914,-4.364 -26.681,-11.972c-0.936,-1.052 -2.546,-1.147 -3.599,-0.211c-1.052,0.935 -1.146,2.547 -0.21,3.599c7.733,8.695 18.846,13.682 30.49,13.682c1.408,0 2.549,-1.142 2.549,-2.549c0,-1.408 -1.141,-2.549 -2.549,-2.549Z" style="fill:#ff39e5;fill-rule:nonzero;"/><path d="M47.242,95.098c0.379,0 0.765,-0.085 1.129,-0.265c1.261,-0.625 1.778,-2.154 1.154,-3.416c-2.445,-4.94 -3.685,-10.264 -3.685,-15.825c0,-1.408 -1.141,-2.549 -2.549,-2.549c-1.408,0 -2.549,1.141 -2.549,2.549c0,6.352 1.418,12.438 4.213,18.086c0.445,0.899 1.348,1.42 2.287,1.42Z" style="fill:#ff39e5;fill-rule:nonzero;"/></g></g><path d="M136.345,25.691l0,-16.25c0,-5.206 -4.269,-9.441 -9.516,-9.441c-5.247,0 -9.516,4.235 -9.516,9.441l0,1.615c-11.676,-6.431 -24.792,-9.808 -38.29,-9.808c-21.108,0 -40.953,8.155 -55.878,22.963c-14.925,14.808 -23.145,34.495 -23.145,55.436c0,20.942 8.22,40.63 23.145,55.437c14.924,14.807 34.769,22.962 55.878,22.962c21.107,0 40.951,-8.155 55.877,-22.962c14.926,-14.808 23.146,-34.496 23.146,-55.437c0,-20.224 -7.698,-39.327 -21.701,-53.956Zm-12.235,-16.25c0,-1.487 1.22,-2.698 2.719,-2.698c1.499,0 2.719,1.211 2.719,2.698l0,30.511l-5.438,0l0,-30.511Zm-45.087,141.861c-19.293,0 -37.431,-7.453 -51.072,-20.986c-13.641,-13.534 -21.154,-31.528 -21.154,-50.669c0,-39.511 32.4,-71.655 72.226,-71.655c13.625,0 26.823,3.762 38.29,10.893l0,24.439c0,1.862 1.522,3.371 3.399,3.371l2.719,0l0,23.602l-2.719,0c-1.877,0 -3.399,1.51 -3.399,3.372l0,23.602c0,1.862 1.522,3.372 3.399,3.372l12.235,0c1.877,0 3.398,-1.51 3.398,-3.372l0,-23.602c0,-1.862 -1.521,-3.372 -3.398,-3.372l-2.719,0l0,-23.602l2.719,0c1.877,0 3.398,-1.509 3.398,-3.371l0,-7.283c9.665,12.458 14.904,27.651 14.904,43.606c0,39.511 -32.401,71.655 -72.226,71.655Zm50.525,-74.261l0,16.858l-5.438,0l0,-16.858l5.438,0Z" style="fill:#ff39e5;fill-rule:nonzero;"/></g><g id="WORDS"><g><text x="191.995px" y="75.164px" style="font-family:'HelveticaNeue-Bold', 'Helvetica Neue';font-weight:700;font-size:100px;fill:#fff;">GET</text></g><g><text x="188.895px" y="154.382px" style="font-family:'HelveticaNeue-Bold', 'Helvetica Neue';font-weight:700;font-size:100px;fill:#fff;">DJ</text></g><g><text x="366.973px" y="152.682px" style="font-family:'HelveticaNeue-Bold', 'Helvetica Neue';font-weight:700;font-size:100px;fill:#fff;">CO</text></g><g><g transform="matrix(6.12323e-17,-1,1,6.12323e-17,-152.742,677.777)"><text x="520.195px" y="512.326px" style="font-family:'HelveticaNeue-Bold', 'Helvetica Neue';font-weight:700;font-size:50px;fill:#fff;">dot</text></g></g><g><text x="415.219px" y="75.164px" style="font-family:'HelveticaNeue-Bold', 'Helvetica Neue';font-weight:700;font-size:100px;fill:#fff;">A</text></g></g></svg>